<?xml version="1.0" encoding="utf-8"?>
<!-- Generator: Adobe Illustrator 23.0.6, SVG Export Plug-In . SVG Version: 6.00 Build 0)  -->
<svg version="1.1" id="Calque_1" xmlns="http://www.w3.org/2000/svg" xmlns:xlink="http://www.w3.org/1999/xlink" x="0px" y="0px"
	 viewBox="0 0 200 100" style="enable-background:new 0 0 200 100;" xml:space="preserve">
<style type="text/css">
	.st0{fill:#AD4298;}
	.st1{font-family:'Bauhaus93';}
	.st2{font-size:90px;}
	.st3{font-size:14px;}
	.st4{fill:#EC008C;}
</style>
<text transform="matrix(1 0 0 1 66.7906 75.359)" class="st0 st1 st2">C</text>
<text transform="matrix(1 0 0 1 91.0204 49.1002)" class="st0 st1 st3">F’E</text>
<g>
	<g>
		<path class="st4" d="M3.2,34.9c1.3-1,1.9-1.5,3.2-2.5c1.6,1.4,2.5,2.1,4.1,3.5c0.3,0.3,0.6,0.4,0.9,0.4c0.3,0,0.6-0.2,1.1-0.5
			c0.1,0,0.1-0.1,0.2-0.1c0.8,0.7,1.2,1,2,1.7c-0.3,0.2-0.5,0.4-0.8,0.6c-1.1,0.8-2.2,1.3-3.2,1.4c-1.1,0.1-2-0.1-2.8-0.8
			C5.9,37.1,5,36.4,3.2,34.9z"/>
		<path class="st4" d="M17.9,32.2c0.7,0.7,1.1,1.1,1.8,1.8c-0.2,0.2-0.4,0.3-0.6,0.5c-1.2,0.8-2.3,1.2-3.6,1.3
			c-1.2,0.1-2.2-0.2-3-0.8c-0.7-0.6-0.9-1.5-0.6-2.5c0.3-1,1.1-1.9,2.2-2.7c1.3-0.9,2.6-1.3,3.8-1.4c1.2,0,2.2,0.3,2.9,1.1
			c0.9,0.9,1.3,1.4,2.2,2.3c-1.2,0.7-1.8,1.1-2.9,1.9c-0.9-0.8-1.3-1.3-2.2-2.1c-0.2-0.2-0.5-0.4-0.9-0.4c-0.4,0-0.7,0.1-1.1,0.3
			c-0.3,0.2-0.5,0.5-0.6,0.7c-0.1,0.3,0,0.5,0.1,0.7c0.2,0.2,0.5,0.3,0.8,0.3c0.3,0,0.7-0.1,1-0.3C17.5,32.6,17.7,32.4,17.9,32.2z"
			/>
		<path class="st4" d="M34.3,21c1.5-0.7,2.3-1,3.8-1.6c0.5,1.3,0.4,2.4-0.2,3.5s-1.8,2-3.5,2.8c-1.7,0.8-3.4,1.2-5.1,1.1
			c-1.7-0.1-3-0.6-3.8-1.6c-0.9-1-1-2.2-0.3-3.5c0.7-1.3,1.9-2.5,3.8-3.4c1.8-0.9,3.6-1.2,5.3-1.1c1.2,0.1,2.3,0.5,3.2,1.3
			c-1.5,0.7-2.3,1.1-3.8,1.9c-1-0.6-2.1-0.6-3.3,0c-0.8,0.4-1.3,0.8-1.5,1.4c-0.3,0.5-0.2,1.1,0.2,1.5c0.4,0.4,0.9,0.7,1.6,0.7
			c0.7,0.1,1.4-0.1,2.1-0.4c0.7-0.4,1.2-0.8,1.5-1.2C34.6,22,34.6,21.5,34.3,21z"/>
		<path class="st4" d="M40.7,13.6c0.5,0.9,0.8,1.3,1.3,2.2c0.4-0.5,0.9-0.8,1.5-1c0.9-0.3,1.7-0.4,2.4-0.2s1.3,0.6,1.6,1.2
			c0.8,1.4,1.1,2.1,1.9,3.4c-1.3,0.5-2,0.7-3.3,1.2c-0.7-1.1-1-1.7-1.7-2.8c-0.1-0.2-0.3-0.4-0.4-0.4c-0.1,0-0.3,0-0.5,0.1
			c-0.4,0.1-0.5,0.4-0.3,0.7c0.7,1.2,1,1.7,1.7,2.9c-1.3,0.5-2,0.8-3.2,1.3C40,19.3,39,17.9,37.2,15C38.6,14.4,39.3,14.1,40.7,13.6z
			"/>
		<path class="st4" d="M55.4,15c0.4,0.9,0.6,1.3,1,2.1c-0.3,0.1-0.5,0.2-0.7,0.3c-1.3,0.4-2.6,0.5-3.8,0.2c-1.2-0.2-2-0.8-2.4-1.6
			c-0.4-0.8-0.3-1.6,0.4-2.5c0.7-0.9,1.7-1.5,3.1-1.9c1.5-0.5,2.9-0.5,4-0.3c1.1,0.3,1.9,0.9,2.2,1.8c0.5,1.1,0.7,1.6,1.1,2.7
			c-1.4,0.4-2,0.6-3.4,0.9c-0.5-1-0.7-1.5-1.2-2.6c-0.1-0.3-0.4-0.5-0.7-0.6c-0.3-0.1-0.7-0.1-1.1,0c-0.4,0.1-0.6,0.3-0.8,0.5
			C53,14.5,52.9,14.7,53,15c0.1,0.2,0.3,0.4,0.6,0.5c0.3,0.1,0.6,0.1,1-0.1C55,15.3,55.2,15.1,55.4,15z"/>
		<path class="st4" d="M61,7.3c1.3,0.3,2,0.5,3.3,0.9c-0.9,0.2-1.4,0.3-2.3,0.5c-0.2-0.1-0.3-0.1-0.5-0.2c-0.2,0.2-0.2,0.2-0.4,0.4
			c-0.8,0.2-1.2,0.3-2.1,0.5C59.8,8.6,60.2,8.2,61,7.3z M63.7,8.9c0.8,2.3,1.2,3.4,2,5.7c-1.4,0.3-2.1,0.5-3.4,0.8
			c-0.9-2.3-1.3-3.4-2.2-5.6C61.5,9.4,62.2,9.3,63.7,8.9z"/>
		<path class="st4" d="M76,12.6c-1.4,0.2-2.1,0.3-3.5,0.6c-0.4-1.3-0.6-1.9-0.9-3.2c-0.1-0.3-0.4-0.5-0.8-0.4
			c-0.5,0.1-0.6,0.3-0.5,0.6c0.4,1.3,0.6,1.9,1,3.2c-1.4,0.3-2.1,0.4-3.5,0.7c-0.4-1.3-0.6-1.9-1.1-3.2c-0.2-0.7,0-1.5,0.6-2.1
			c0.7-0.7,1.6-1.1,2.9-1.4c1.4-0.3,2.6-0.2,3.6,0.3c0.8,0.4,1.3,1,1.5,1.8C75.6,10.8,75.7,11.4,76,12.6z"/>
		<path class="st4" d="M86.9,8.7c-2.2,0.2-3.3,0.3-5.5,0.6c-0.1-0.2-0.2-0.3-0.2-0.4c0-0.2,0-0.4,0.1-0.6C82,8.1,82.4,8.1,83.2,8
			c-0.2-0.4-0.7-0.6-1.3-0.5C81.4,7.5,81,7.7,80.8,8c-0.2,0.3-0.3,0.6-0.3,0.9c0.1,0.4,0.3,0.7,0.6,0.9c0.3,0.2,0.7,0.3,1.1,0.2
			c0.4,0,0.7-0.2,1-0.4c0.9,0.5,1.4,0.8,2.3,1.3c-0.9,0.5-1.9,0.9-3,1c-1.4,0.2-2.6,0-3.7-0.4c-1.1-0.4-1.7-1.1-1.9-1.9
			c-0.2-0.8,0.1-1.6,1-2.4c0.9-0.7,2.1-1.2,3.5-1.4c1.4-0.2,2.7,0,3.8,0.5s1.6,1.2,1.7,2C86.9,8.4,86.9,8.5,86.9,8.7z"/>
		<path class="st4" d="M98.6,6.4c0,0.9,0,1.3,0,2.2c-0.5,0-0.8,0-1.3,0c0,0.8,0,1.3,0.1,2.1c-1.5,0-2.3,0.1-3.9,0.1
			c-0.1-2-0.2-3-0.4-5c-0.1-0.9,0.4-1.7,1.3-2.4s2.2-1,3.8-1c1.7,0,3.1,0.4,4.2,1.2c-1.4,0.6-2,0.9-3.4,1.4c-0.2-0.3-0.5-0.5-1-0.4
			c-0.6,0-0.9,0.3-0.9,0.8c0,0.4,0,0.6,0,1C97.8,6.4,98.1,6.4,98.6,6.4z"/>
		<path class="st4" d="M108.6,4.9c-0.1,0.9-0.1,1.4-0.2,2.4c-0.3-0.1-0.5-0.2-0.7-0.2c-0.7,0-1,0.3-1.1,0.9
			c-0.1,1.1-0.1,1.7-0.2,2.8c-1.4,0-2.1-0.1-3.6-0.1c0-1.3,0-1.9,0.1-3.2c0-0.9,0.4-1.5,1.2-2c0.8-0.5,1.9-0.7,3.2-0.7
			C107.7,4.8,108.1,4.8,108.6,4.9z"/>
		<path class="st4" d="M114.7,9.1c-0.1,0.9-0.2,1.4-0.3,2.3c-0.3,0-0.6,0-0.8,0c-1.4-0.1-2.6-0.5-3.5-1.1c-0.9-0.6-1.3-1.4-1.3-2.3
			c0.1-0.9,0.6-1.6,1.7-2.1c1.1-0.5,2.3-0.8,3.8-0.6c1.6,0.1,2.8,0.5,3.7,1.2c0.8,0.6,1.2,1.5,1,2.4c-0.2,1.1-0.3,1.7-0.5,2.9
			c-1.4-0.2-2.1-0.2-3.5-0.3c0.2-1.1,0.2-1.6,0.4-2.7c0-0.3,0-0.6-0.3-0.8c-0.2-0.2-0.6-0.3-1-0.4c-0.4,0-0.7,0-1,0.2
			c-0.3,0.1-0.5,0.3-0.5,0.6c0,0.2,0.1,0.5,0.3,0.6c0.2,0.2,0.5,0.3,0.9,0.3C114.1,9.2,114.4,9.1,114.7,9.1z"/>
		<path class="st4" d="M125.5,4.4c-0.2,0.9-0.3,1.3-0.5,2.2c0.7,0.1,1,0.1,1.7,0.2c-0.2,0.9-0.3,1.4-0.6,2.3c-0.6-0.1-1-0.1-1.6-0.2
			c-0.1,0.5-0.1,0.8,0.1,1c0.2,0.2,0.6,0.4,1.3,0.5c-0.2,0.9-0.3,1.4-0.6,2.3c-0.2,0-0.3,0-0.4-0.1c-0.8-0.1-1.5-0.3-2.2-0.7
			c-0.7-0.3-1.2-0.7-1.5-1.2c-0.4-0.6-0.6-1.3-0.4-2.1c0.4-1.9,0.5-2.9,0.9-4.8C123.2,4,124,4.1,125.5,4.4z"/>
		<path class="st4" d="M136.9,12.1c-2.1-0.5-3.2-0.7-5.4-1.1c0-0.2,0-0.3,0-0.5c0.1-0.2,0.2-0.4,0.3-0.5c0.7,0.1,1.1,0.2,1.8,0.4
			c0-0.5-0.3-0.7-1-0.9c-0.5-0.1-0.9,0-1.2,0.1c-0.4,0.2-0.6,0.4-0.7,0.8c-0.1,0.4-0.1,0.7,0.1,1c0.2,0.3,0.5,0.5,1,0.5
			c0.4,0.1,0.7,0,1.1-0.1c0.6,0.8,0.9,1.1,1.5,1.9c-1.1,0.2-2.2,0.3-3.3,0c-1.4-0.3-2.4-0.8-3.2-1.5c-0.8-0.7-1.1-1.5-0.9-2.4
			c0.2-0.8,0.9-1.5,2-1.9c1.2-0.4,2.5-0.5,3.9-0.2c1.4,0.3,2.5,0.8,3.3,1.6c0.8,0.8,1,1.6,0.7,2.4C137.1,11.8,137,11.9,136.9,12.1z"
			/>
		<path class="st4" d="M144.9,10.6c-0.4,0.9-0.6,1.3-1,2.2c-0.2-0.1-0.4-0.3-0.6-0.3c-0.6-0.2-1.1,0-1.3,0.6
			c-0.4,1.1-0.7,1.6-1.1,2.7c-1.4-0.4-2-0.5-3.4-0.9c0.5-1.2,0.7-1.9,1.2-3.1c0.3-0.8,0.9-1.4,1.9-1.7c0.9-0.3,2.1-0.3,3.3,0.1
			C144.1,10.3,144.5,10.4,144.9,10.6z"/>
		<path class="st4" d="M151.4,19c-1.3-0.5-2-0.7-3.3-1.1c0.6-1.2,0.9-1.9,1.5-3.1c0.2-0.3,0-0.5-0.4-0.7c-0.4-0.1-0.7,0-0.9,0.3
			c-0.6,1.2-0.9,1.9-1.5,3.1c-1.3-0.4-2-0.6-3.4-1c0.5-1.2,0.8-1.9,1.4-3.1c0.3-0.7,1-1.2,2-1.5c1-0.3,2.2-0.2,3.3,0.2
			c1.4,0.4,2.3,1.1,2.8,1.9c0.4,0.7,0.4,1.4,0,2.2C152.4,17.2,152.1,17.8,151.4,19z"/>
		<path class="st4" d="M158.4,16c0.1-0.2,0.1-0.2,0.2-0.4c-0.6-0.3-1-0.6-1.3-0.9c-0.3-0.4-0.3-0.7-0.1-1.1c0.2-0.4,0.6-0.6,1.2-0.7
			c0.6-0.1,1.2,0,1.8,0.2c0.6,0.2,1.1,0.6,1.3,1c0.3,0.4,0.3,0.8,0.1,1.2c-0.2,0.4-0.6,0.6-1.2,0.8C159.8,16.1,159.2,16.1,158.4,16z
			"/>
		<path class="st4" d="M169.6,20.8c-0.5,0.6-0.7,0.9-1.2,1.5c-0.9-0.4-1.4-0.7-2.3-1.1c-0.3-0.1-0.6-0.2-0.7-0.2
			c-0.2,0-0.3,0.1-0.4,0.2c-0.1,0.1-0.1,0.3,0,0.4c0.1,0.1,0.4,0.3,0.8,0.4c0.9,0.4,1.4,0.7,2.4,1.1c-0.6,0.8-0.9,1.2-1.5,2
			c-1.1-0.5-1.6-0.8-2.7-1.3c-1.3-0.6-2.1-1.2-2.6-1.9c-0.4-0.7-0.4-1.4,0-2.1c0.7-1.1,1.1-1.7,1.8-2.8c0.4-0.7,1.1-1.1,2.1-1.2
			c0.9-0.1,2,0.2,3.3,0.7c1.3,0.6,1.9,0.9,3.2,1.5c-0.6,0.8-0.9,1.2-1.5,2c-0.9-0.4-1.4-0.7-2.3-1.1c-0.6-0.3-1-0.3-1.2-0.1
			c-0.1,0.1-0.1,0.3,0,0.4c0.1,0.1,0.4,0.3,0.7,0.4C168.5,20.3,168.8,20.5,169.6,20.8z"/>
		<path class="st4" d="M177.1,20.9c-2.2,2.7-3.3,4-5.6,6.7c-1.2-0.7-1.8-1-3.1-1.6c2.1-2.7,3.2-4.1,5.3-6.9
			C175.1,19.8,175.8,20.2,177.1,20.9z"/>
		<path class="st4" d="M182.3,23.8c-2.4,2.6-3.6,3.9-6,6.5c-1.2-0.7-1.8-1-3-1.7c2.3-2.7,3.4-4,5.7-6.7
			C180.3,22.6,181,23,182.3,23.8z"/>
		<path class="st4" d="M187.8,34.4c-1.8-1.2-2.7-1.8-4.5-3c0.1-0.2,0.2-0.3,0.3-0.4c0.2-0.2,0.4-0.3,0.6-0.4c0.6,0.4,0.9,0.6,1.5,1
			c0.2-0.4,0.1-0.8-0.5-1.2c-0.4-0.2-0.8-0.4-1.2-0.3c-0.4,0-0.8,0.2-1.1,0.5c-0.3,0.3-0.4,0.6-0.4,0.9c0,0.3,0.2,0.6,0.6,0.8
			c0.3,0.2,0.7,0.3,1.1,0.3c0.2,0.9,0.3,1.4,0.4,2.3c-1.1-0.2-2.2-0.6-3.1-1.2c-1.1-0.7-1.9-1.6-2.2-2.5c-0.4-1-0.2-1.8,0.4-2.5
			c0.6-0.7,1.6-1,2.9-1c1.3,0,2.6,0.5,3.8,1.3c1.2,0.8,1.9,1.7,2.3,2.7s0.1,1.8-0.6,2.4C188.1,34.1,188,34.2,187.8,34.4z"/>
		<path class="st4" d="M196.6,36.5c-0.8,0.7-1.2,1-2.1,1.6c-0.4-0.3-0.7-0.5-1-0.5c-0.2,0-0.5,0.1-0.9,0.3c-1.1,0.7-2.4,0.9-3.8,0.5
			c-0.7-0.2-1.6-0.7-2.5-1.4c-0.2-0.1-0.2-0.2-0.4-0.3c0.8-0.7,1.2-1,2-1.7c0.1,0,0.1,0.1,0.1,0.1c0.5,0.3,0.9,0.5,1.2,0.5
			c0.3,0,0.7-0.1,1-0.3c0.6-0.4,1-0.7,1.3-0.8c0.3-0.1,0.7-0.1,1.3,0c0.9,0.1,1.9,0.6,2.9,1.4C196.1,36.1,196.3,36.3,196.6,36.5z"/>
	</g>
</g>
<path class="st4" d="M91.3,91.8c-1.1,0.6-1.9,0.2-2.5-0.5c-0.4-0.5-0.4-1,0.1-1.5c-0.5-0.5-0.9-0.9-1.4-1.4c-1-1.1-1.8-2.3-2-3.6
	c-0.3-1.8,0.4-3.4,1.9-4.8c1.8-1.5,4-2.3,6.6-2.2c1.9,0,3.6,0.6,5.2,1.5c0.5,0.3,0.9,0.6,1.4,0.9c0.1,0.1,0.3,0.1,0.4,0.1
	c0.4-0.2,0.8-0.3,1.2-0.5c1.1-0.7,2.3-1.3,3.7-1.6c2.4-0.5,4.6,0,6.6,1.2c2.4,1.5,3.3,4,2.2,6.5c-0.8,1.8-2.2,3.2-4.3,4.2
	c-0.1,0.1-0.2,0.1-0.4,0.2c0,0,0,0,0.1,0c0,0.3,0.1,0.6,0.1,1c0,0.1-0.1,0.3-0.2,0.4c-0.5,0.5-1.2,0.8-2,0.8c-0.1,0-0.1,0-0.2,0
	c0,0,0,0-0.1,0c-0.4,1.2-0.9,1.5-2.7,1.7c0,0.7-0.5,1.1-1.2,1.4c-0.7,0.3-1.4,0.2-2.1,0c0,0,0,0.1,0,0.1c-0.1,0.9-1.1,1.5-2.2,1.3
	c-0.3-0.1-0.6-0.2-0.8-0.2c-0.1,0-0.3,0-0.3,0c-0.5,0.4-0.9,0.4-1.4,0.2c-0.7-0.4-0.9-0.7-0.8-1.2c0-0.1,0-0.2,0-0.2
	c-0.1,0-0.2,0-0.3,0.1c-0.3,0.1-0.6,0.2-1,0.1c-0.8-0.2-1.4-0.9-1.1-1.6c0-0.1,0-0.2,0-0.2c-0.1,0-0.2,0-0.3,0.1
	c-0.6,0.3-1.2,0.3-1.7-0.1c-0.2-0.2-0.4-0.4-0.6-0.6c-0.3-0.4-0.3-0.7,0-1.1C91.2,92,91.3,91.9,91.3,91.8
	C91.3,91.8,91.3,91.8,91.3,91.8z M96.3,95.2C96.3,95.2,96.4,95.2,96.3,95.2c0.3-0.1,0.6-0.3,0.8-0.5c0.3-0.2,0.7-0.3,1-0.2
	c0.3,0.1,0.6,0.3,0.8,0.5c0.5,0.4,0.4,0.9,0,1.3c-0.1,0-0.1,0.1-0.2,0.2c0.4,0.1,0.8,0.2,1.1,0.2c0.8,0.1,1.6-0.4,1.7-1
	c0-0.2,0-0.4-0.3-0.6c-1.8-1.1-3.4-2.3-4.9-3.6c-0.4-0.4-0.8-0.8-1.2-1.3c0,0,0.1-0.1,0.1-0.1c0.1,0,0.2,0,0.2,0.1
	c0.2,0.2,0.3,0.4,0.5,0.5c1.1,1.1,2.4,2.1,3.7,3.1c0.7,0.4,1.3,0.9,2,1.3c1,0.6,2.1,0.4,2.8-0.3c0.2-0.2,0.3-0.4,0.3-0.6
	c0-0.1-0.1-0.2-0.2-0.3c-1.4-0.8-2.7-1.6-3.9-2.5c-1-0.8-2-1.7-2.8-2.7c-0.1-0.1-0.2-0.2,0.1-0.3c0,0,0.1,0,0.1,0.1
	c1.7,2.2,4.1,3.8,6.7,5.3c0.1,0.1,0.2,0.1,0.3,0.1c0.9,0.1,1.9-0.4,2.2-1c0.2-0.4,0.2-0.6-0.3-0.8c-0.1,0-0.1-0.1-0.2-0.1
	c-1.9-1.1-3.7-2.2-5.2-3.7c-0.4-0.4-0.7-0.9-1.1-1.3c0.3-0.1,0.3-0.1,0.4,0c0.3,0.4,0.6,0.8,1,1.2c1.6,1.6,3.6,2.8,5.7,3.9
	c0.1,0.1,0.3,0.1,0.4,0.1c0.6,0,1.2-0.2,1.6-0.6c0.6-0.4,0.4-1.3-0.3-1.6c-1.1-0.4-2.1-1.1-3-1.8c-1.7-1.3-3.1-2.9-4.1-4.6
	c-0.1-0.1-0.2-0.2-0.3-0.2c-0.5,0-1,0-1.4,0.4c-0.5,0.4-0.9,0.8-1.5,1.2c-1.1,0.7-2.3,1.1-3.7,0.9c-0.8-0.1-1.3-0.8-0.9-1.3
	c0.2-0.3,0.6-0.6,1-0.8c0.9-0.5,1.7-1.1,2.3-1.9c0.6-0.7,1.3-1.2,2.3-1.5c0.1,0,0.2-0.1,0.4-0.1c0,0,0-0.1,0-0.1
	c-0.1,0-0.2-0.1-0.3-0.1c-0.5-0.3-1-0.7-1.6-1c-3.9-2.1-8-1.5-10.8,0.7c-1.8,1.4-2.6,3.1-2.1,5.1c0.3,1.2,1,2.3,1.8,3.2
	c0.5,0.5,1,1,1.5,1.5c0.4-0.3,0.8-0.5,1.2-0.8c0.9-0.7,1.9-0.7,2.7,0.3c0.5,0.6,0.4,1.2-0.2,1.6c-0.4,0.3-0.8,0.5-1.2,0.8
	c0,0-0.1,0.1-0.1,0.1c0,0,0,0,0.1,0.1c0.1-0.1,0.2-0.1,0.3-0.2c0.4-0.3,0.8-0.5,1.2-0.8c0.4-0.3,0.9-0.3,1.3-0.1
	c0.6,0.3,1,0.7,1.1,1.2c0,0.2,0,0.4-0.1,0.6c-0.1,0.1-0.2,0.3-0.4,0.4c-0.3,0.2-0.7,0.5-1,0.7c0,0,0,0.1,0.1,0.1
	c0.1,0,0.2,0,0.2-0.1c0.3-0.2,0.5-0.4,0.8-0.6c0.3-0.2,0.6-0.3,0.9-0.2c0.5,0,0.8,0.3,1.1,0.5c0.5,0.5,0.4,1.1-0.1,1.5
	C96.7,94.9,96.5,95,96.3,95.2z"/>
<g>
	<path class="st0" d="M199,1v98H1V1H199 M200,0H0v100h200V0L200,0z"/>
</g>
</svg>
